<svg width="8" height="7" viewBox="0 0 8 7" fill="none" xmlns="http://www.w3.org/2000/svg">
<path d="M0.0424186 1.81524C0.0273069 1.74404 0.107407 1.69129 0.166847 1.7333L2.21148 3.17831C2.25086 3.20613 2.30572 3.19307 2.32832 3.15047L3.92933 0.133182C3.9594 0.0765115 4.0406 0.0765115 4.07067 0.133182L5.67168 3.15047C5.69428 3.19307 5.74914 3.20613 5.78852 3.17831L7.83315 1.7333C7.89259 1.69129 7.97269 1.74404 7.95758 1.81524L6.86091 6.98224C6.85881 6.99215 6.84924 6.99862 6.83926 6.99687C4.96069 6.66812 3.03931 6.66812 1.16075 6.99687C1.15076 6.99862 1.14119 6.99215 1.13909 6.98224L0.0424186 1.81524Z" fill="#D9D9D9"/>
</svg>
