<svg width="35" height="35" viewBox="0 0 35 35" fill="none" xmlns="http://www.w3.org/2000/svg">
<circle cx="17.5" cy="17.5" r="17.3333" fill="#38514E"/>
<path fill-rule="evenodd" clip-rule="evenodd" d="M17.5 19.6667C19.8933 19.6667 21.8334 17.7266 21.8334 15.3333C21.8334 12.9401 19.8933 11 17.5 11C15.1068 11 13.1667 12.9401 13.1667 15.3333C13.1667 17.7266 15.1068 19.6667 17.5 19.6667ZM17.5 19.6667C23.4831 19.6667 28.3334 24.5169 28.3334 30.5C28.3334 30.6819 28.3289 30.8627 28.32 31.0423C25.3546 33.4147 21.593 34.8333 17.5 34.8333C13.4071 34.8333 9.64543 33.4147 6.68003 31.0423C6.67117 30.8627 6.66669 30.6819 6.66669 30.5C6.66669 24.5169 11.5169 19.6667 17.5 19.6667Z" fill="#D9D9D9"/>
</svg>
